<?xml version="1.0" standalone="no"?>
<!DOCTYPE svg PUBLIC "-//W3C//DTD SVG 1.1//EN"
  "http://www.w3.org/Graphics/SVG/1.1/DTD/svg11.dtd">
<svg version="1.1" xmlns="http://www.w3.org/2000/svg" width="1792" height="1063" viewBox="-992 -32 1792 1063" id="ccdiagram"><defs><style type="text/css">@import url(&#x27;https://fonts.googleapis.com/css?family=Open+Sans:400,700&#x27;);</style></defs><g><filter id="dropshadow" height="130%"><feGaussianBlur in="SourceAlpha" stdDeviation="3"></feGaussianBlur><feOffset dx="3" dy="6" result="offsetblur"></feOffset><feComponentTransfer><feFuncA type="linear" slope="0.4"></feFuncA></feComponentTransfer><feMerge><feMergeNode></feMergeNode><feMergeNode in="SourceGraphic"></feMergeNode></feMerge></filter><g><g style="pointer-events:none"><line x1="32" y1="19" x2="-928" y2="574" stroke="#eee" stroke-width="1"></line><line x1="96" y1="56" x2="-864" y2="611" stroke="#eee" stroke-width="1"></line><line x1="160" y1="93" x2="-800" y2="648" stroke="#eee" stroke-width="1"></line><line x1="224" y1="130" x2="-736" y2="685" stroke="#eee" stroke-width="1"></line><line x1="288" y1="167" x2="-672" y2="722" stroke="#eee" stroke-width="1"></line><line x1="352" y1="204" x2="-608" y2="759" stroke="#eee" stroke-width="1"></line><line x1="416" y1="241" x2="-544" y2="796" stroke="#eee" stroke-width="1"></line><line x1="480" y1="278" x2="-480" y2="833" stroke="#eee" stroke-width="1"></line><line x1="544" y1="315" x2="-416" y2="870" stroke="#eee" stroke-width="1"></line><line x1="608" y1="352" x2="-352" y2="907" stroke="#eee" stroke-width="1"></line><line x1="672" y1="389" x2="-288" y2="944" stroke="#eee" stroke-width="1"></line><line x1="736" y1="426" x2="-224" y2="981" stroke="#eee" stroke-width="1"></line><line x1="-32" y1="19" x2="736" y2="463" stroke="#eee" stroke-width="1"></line><line x1="-96" y1="56" x2="672" y2="500" stroke="#eee" stroke-width="1"></line><line x1="-160" y1="93" x2="608" y2="537" stroke="#eee" stroke-width="1"></line><line x1="-224" y1="130" x2="544" y2="574" stroke="#eee" stroke-width="1"></line><line x1="-288" y1="167" x2="480" y2="611" stroke="#eee" stroke-width="1"></line><line x1="-352" y1="204" x2="416" y2="648" stroke="#eee" stroke-width="1"></line><line x1="-416" y1="241" x2="352" y2="685" stroke="#eee" stroke-width="1"></line><line x1="-480" y1="278" x2="288" y2="722" stroke="#eee" stroke-width="1"></line><line x1="-544" y1="315" x2="224" y2="759" stroke="#eee" stroke-width="1"></line><line x1="-608" y1="352" x2="160" y2="796" stroke="#eee" stroke-width="1"></line><line x1="-672" y1="389" x2="96" y2="833" stroke="#eee" stroke-width="1"></line><line x1="-736" y1="426" x2="32" y2="870" stroke="#eee" stroke-width="1"></line><line x1="-800" y1="463" x2="-32" y2="907" stroke="#eee" stroke-width="1"></line><line x1="-864" y1="500" x2="-96" y2="944" stroke="#eee" stroke-width="1"></line><line x1="-928" y1="537" x2="-160" y2="981" stroke="#eee" stroke-width="1"></line><polygon points="-960 555, -960 565, -192 1009, -192 999" stroke-linejoin="round" stroke="#54626f" stroke-width="1" fill="#f9f9f9"></polygon><polygon points="-192 1009, 768 454, 768 444, -192 999" stroke-linejoin="round" stroke="#54626f" stroke-width="1" fill="#e2e2e2"></polygon></g><g pointer-events=""></g><g style="pointer-events:none"><line x1="0" y1="0" x2="-960" y2="555" stroke="#54626f" stroke-width="1"></line><line x1="64" y1="37" x2="-896" y2="592" stroke="#54626f" stroke-width="1"></line><line x1="128" y1="74" x2="-832" y2="629" stroke="#54626f" stroke-width="1"></line><line x1="192" y1="111" x2="-768" y2="666" stroke="#54626f" stroke-width="1"></line><line x1="256" y1="148" x2="-704" y2="703" stroke="#54626f" stroke-width="1"></line><line x1="320" y1="185" x2="-640" y2="740" stroke="#54626f" stroke-width="1"></line><line x1="384" y1="222" x2="-576" y2="777" stroke="#54626f" stroke-width="1"></line><line x1="448" y1="259" x2="-512" y2="814" stroke="#54626f" stroke-width="1"></line><line x1="512" y1="296" x2="-448" y2="851" stroke="#54626f" stroke-width="1"></line><line x1="576" y1="333" x2="-384" y2="888" stroke="#54626f" stroke-width="1"></line><line x1="640" y1="370" x2="-320" y2="925" stroke="#54626f" stroke-width="1"></line><line x1="704" y1="407" x2="-256" y2="962" stroke="#54626f" stroke-width="1"></line><line x1="768" y1="444" x2="-192" y2="999" stroke="#54626f" stroke-width="1"></line><line x1="0" y1="0" x2="768" y2="444" stroke="#54626f" stroke-width="1"></line><line x1="-64" y1="37" x2="704" y2="481" stroke="#54626f" stroke-width="1"></line><line x1="-128" y1="74" x2="640" y2="518" stroke="#54626f" stroke-width="1"></line><line x1="-192" y1="111" x2="576" y2="555" stroke="#54626f" stroke-width="1"></line><line x1="-256" y1="148" x2="512" y2="592" stroke="#54626f" stroke-width="1"></line><line x1="-320" y1="185" x2="448" y2="629" stroke="#54626f" stroke-width="1"></line><line x1="-384" y1="222" x2="384" y2="666" stroke="#54626f" stroke-width="1"></line><line x1="-448" y1="259" x2="320" y2="703" stroke="#54626f" stroke-width="1"></line><line x1="-512" y1="296" x2="256" y2="740" stroke="#54626f" stroke-width="1"></line><line x1="-576" y1="333" x2="192" y2="777" stroke="#54626f" stroke-width="1"></line><line x1="-640" y1="370" x2="128" y2="814" stroke="#54626f" stroke-width="1"></line><line x1="-704" y1="407" x2="64" y2="851" stroke="#54626f" stroke-width="1"></line><line x1="-768" y1="444" x2="0" y2="888" stroke="#54626f" stroke-width="1"></line><line x1="-832" y1="481" x2="-64" y2="925" stroke="#54626f" stroke-width="1"></line><line x1="-896" y1="518" x2="-128" y2="962" stroke="#54626f" stroke-width="1"></line><line x1="-960" y1="555" x2="-192" y2="999" stroke="#54626f" stroke-width="1"></line></g><g pointer-events=""></g><g pointer-events=""><g><g><line x1="-128" y1="518" x2="-224" y2="463" stroke="red" stroke-width="8" opacity="0"></line><line x1="-128" y1="518" x2="-224" y2="463" stroke="#000000" stroke-width="2" stroke-linecap="round"></line></g></g><g><g><line x1="96" y1="389" x2="192" y2="444" stroke="red" stroke-width="8" opacity="0"></line><line x1="96" y1="389" x2="192" y2="444" stroke="#000000" stroke-width="2" stroke-linecap="round"></line></g></g><g><g><line x1="16" y1="435" x2="96" y2="389" stroke="red" stroke-width="8" opacity="0"></line><line x1="16" y1="435" x2="96" y2="389" stroke="#000000" stroke-width="2" stroke-linecap="round"></line></g></g><g><g><line x1="0" y1="56" x2="-99" y2="113" stroke="red" stroke-width="8" opacity="0"></line><line x1="0" y1="56" x2="-99" y2="113" stroke="#000000" stroke-width="2" stroke-linecap="round"></line><polygon points="-109 118, -83 113, -96 111, -99 104, -109 118" stroke-linejoin="round" fill="#000000" stroke="#000000" stroke-width="1"></polygon></g></g><g><g><line x1="-224" y1="463" x2="-170" y2="431" stroke="red" stroke-width="8" opacity="0"></line><line x1="-224" y1="463" x2="-170" y2="431" stroke="#000000" stroke-width="2" stroke-linecap="round"></line><polygon points="-160 426, -186 431, -172 433, -169 440, -160 426" stroke-linejoin="round" fill="#000000" stroke="#000000" stroke-width="1"></polygon></g></g><g><g><line x1="-128" y1="518" x2="-32" y2="574" stroke="red" stroke-width="8" opacity="0"></line><line x1="-128" y1="518" x2="-32" y2="574" stroke="#000000" stroke-width="2" stroke-linecap="round"></line></g></g><g><g><line x1="96" y1="389" x2="0" y2="333" stroke="red" stroke-width="8" opacity="0"></line><line x1="96" y1="389" x2="0" y2="333" stroke="#000000" stroke-width="2" stroke-linecap="round"></line></g></g><g><g><line x1="0" y1="56" x2="326" y2="244" stroke="red" stroke-width="8" opacity="0"></line><line x1="0" y1="56" x2="326" y2="244" stroke="#000000" stroke-width="2" stroke-linecap="round"></line><polygon points="336 250, 327 235, 324 243, 310 244, 336 250" stroke-linejoin="round" fill="#000000" stroke="#000000" stroke-width="1"></polygon></g></g><g><g><line x1="336" y1="250" x2="234" y2="309" stroke="red" stroke-width="8" opacity="0"></line><line x1="336" y1="250" x2="234" y2="309" stroke="#000000" stroke-width="2" stroke-linecap="round"></line><polygon points="224 315, 250 309, 236 307, 233 300, 224 315" stroke-linejoin="round" fill="#000000" stroke="#000000" stroke-width="1"></polygon></g></g><g><g><line x1="96" y1="389" x2="170" y2="346" stroke="red" stroke-width="8" opacity="0"></line><line x1="96" y1="389" x2="170" y2="346" stroke="#000000" stroke-width="2" stroke-linecap="round"></line><polygon points="179 340, 154 346, 167 348, 170 355, 179 340" stroke-linejoin="round" fill="#000000" stroke="#000000" stroke-width="1"></polygon></g></g><g><g><line x1="-208" y1="564" x2="-128" y2="518" stroke="red" stroke-width="8" opacity="0"></line><line x1="-208" y1="564" x2="-128" y2="518" stroke="#000000" stroke-width="2" stroke-linecap="round"></line></g></g><g><g><line x1="-128" y1="518" x2="-74" y2="487" stroke="red" stroke-width="8" opacity="0"></line><line x1="-128" y1="518" x2="-74" y2="487" stroke="#000000" stroke-width="2" stroke-linecap="round"></line><polygon points="-64 481, -90 486, -76 488, -73 496, -64 481" stroke-linejoin="round" fill="#000000" stroke="#000000" stroke-width="1"></polygon></g></g><g><g><line x1="-416" y1="685" x2="-298" y2="616" stroke="red" stroke-width="8" opacity="0"></line><line x1="-416" y1="685" x2="-298" y2="616" stroke="#000000" stroke-width="2" stroke-linecap="round"></line><polygon points="-288 611, -314 616, -300 618, -297 625, -288 611" stroke-linejoin="round" fill="#000000" stroke="#000000" stroke-width="1"></polygon></g></g><g><g><line x1="192" y1="444" x2="112" y2="490" stroke="red" stroke-width="8" opacity="0"></line><line x1="192" y1="444" x2="112" y2="490" stroke="#000000" stroke-width="2" stroke-linecap="round"></line></g></g><g><g><line x1="-304" y1="564" x2="-592" y2="398" stroke="red" stroke-width="8" opacity="0"></line><line x1="-304" y1="564" x2="-592" y2="398" stroke="#000000" stroke-width="2" stroke-linecap="round"></line></g></g><g><g><line x1="-592" y1="398" x2="-189" y2="165" stroke="red" stroke-width="8" opacity="0"></line><line x1="-592" y1="398" x2="-189" y2="165" stroke="#000000" stroke-width="2" stroke-linecap="round"></line><polygon points="-179 159, -205 165, -192 166, -189 174, -179 159" stroke-linejoin="round" fill="#000000" stroke="#000000" stroke-width="1"></polygon></g></g><g><g><line x1="-32" y1="574" x2="22" y2="542" stroke="red" stroke-width="8" opacity="0"></line><line x1="-32" y1="574" x2="22" y2="542" stroke="#000000" stroke-width="2" stroke-linecap="round"></line><polygon points="32 537, 6 542, 20 544, 23 551, 32 537" stroke-linejoin="round" fill="#000000" stroke="#000000" stroke-width="1"></polygon></g></g><g><g><line x1="-144" y1="139" x2="150" y2="309" stroke="red" stroke-width="8" opacity="0"></line><line x1="-144" y1="139" x2="150" y2="309" stroke="#000000" stroke-width="2" stroke-linecap="round"></line><polygon points="160 315, 151 300, 148 307, 134 309, 160 315" stroke-linejoin="round" fill="#000000" stroke="#000000" stroke-width="1"></polygon></g></g><g><g><line x1="-672" y1="574" x2="-490" y2="679" stroke="red" stroke-width="8" opacity="0"></line><line x1="-672" y1="574" x2="-490" y2="679" stroke="#000000" stroke-width="2" stroke-linecap="round"></line><polygon points="-480 685, -489 670, -492 677, -506 679, -480 685" stroke-linejoin="round" fill="#000000" stroke="#000000" stroke-width="1"></polygon></g></g><g><g><line x1="0" y1="333" x2="-80" y2="379" stroke="red" stroke-width="8" opacity="0"></line><line x1="0" y1="333" x2="-80" y2="379" stroke="#000000" stroke-width="2" stroke-linecap="round"></line></g></g></g><g pointer-events=""><g><g transform="translate(0 0)"><svg x="141" y="231" height="115.695" width="100.625" viewBox="0 0 26.623829 30.611019"><path d="M13.312.306v15l12.99-7.5z" fill="#4286c5" fill-rule="evenodd"></path><path d="M.322 7.806l12.99 7.5v-15z" fill="#26527b" fill-rule="evenodd"></path><path d="M13.312.306v15" fill="none" stroke="#318bce" stroke-width=".265"></path><path d="M13.312 15.306l12.99-7.5-6.495 18.75-6.495 3.75z" fill="#26527b" fill-rule="evenodd"></path><path d="M.322 7.806l12.99 7.5v15l-6.495-3.75z" fill="#326ca2" fill-rule="evenodd"></path><path d="M.322 7.806l12.99 7.5 12.99-7.5-12.99 7.5v15" fill="none" stroke="#5aa2d8" stroke-width=".265"></path><path d="M13.312.306l-12.99 7.5 6.495 18.75 6.495 3.75 6.495-3.75 6.495-18.75z" fill="none" stroke="#000000" stroke-width=".529"></path></svg></g></g><g><g transform="translate(0 0)"><svg x="-176" y="321" height="113.438" width="96" viewBox="0 0 25.400052 30.013873"><g transform="translate(412.599 -86.957)"><path d="M-412.333 102.348v4.786l8.29 4.785h8.289l8.29-4.785v-4.786l-8.29-4.786h-8.29z" fill="#3c3c3c" fill-rule="evenodd"></path><path d="M-395.754 111.92l8.29-4.786v4.785l-8.29 4.786z" fill="#090909" fill-rule="evenodd"></path><path d="M-404.044 111.92h8.29v4.785h-8.29z" fill="#232323" fill-rule="evenodd"></path><path d="M-412.333 107.134v4.785l8.29 4.786v-4.786z" fill="#232323" fill-rule="evenodd"></path><path d="M-412.333 107.134l8.29 4.785h8.289l8.29-4.785M-404.044 111.92v4.785M-395.754 111.92v4.785" fill="none" stroke="#5e5e5e" stroke-width=".26588"></path><path d="M-412.333 102.348v9.571l8.29 4.786h8.289l8.29-4.786v-9.571l-8.29-4.786h-8.29z" fill="none" stroke="#000000" stroke-width=".53176"></path><path d="M-412.333 97.178v4.786l8.29 4.786h8.289l8.29-4.786v-4.786l-8.29-4.786h-8.29z" fill="#3c3c3c" fill-rule="evenodd"></path><path d="M-395.754 106.75l8.29-4.786v4.786l-8.29 4.786z" fill="#090909" fill-rule="evenodd"></path><path d="M-404.044 106.75h8.29v4.786h-8.29z" fill="#232323" fill-rule="evenodd"></path><path d="M-412.333 101.964v4.786l8.29 4.786v-4.786z" fill="#232323" fill-rule="evenodd"></path><path d="M-412.333 101.964l8.29 4.786h8.289l8.29-4.786M-404.044 106.75v4.786M-395.754 106.75v4.786" fill="none" stroke="#5e5e5e" stroke-width=".266"></path><path d="M-412.333 97.178v9.572l8.29 4.786h8.289l8.29-4.786v-9.572l-8.29-4.786h-8.29z" fill="none" stroke="#000000" stroke-width=".532"></path><path d="M-412.333 92.01v4.785l8.29 4.786h8.289l8.29-4.786v-4.786l-8.29-4.786h-8.29z" fill="#3c3c3c" fill-rule="evenodd"></path><path d="M-395.754 101.58l8.29-4.785v4.786l-8.29 4.786z" fill="#090909" fill-rule="evenodd"></path><path d="M-404.044 101.58h8.29v4.787h-8.29z" fill="#232323" fill-rule="evenodd"></path><path d="M-412.333 96.795v4.786l8.29 4.786v-4.786z" fill="#232323" fill-rule="evenodd"></path><path d="M-412.333 96.795l8.29 4.786h8.289l8.29-4.786M-404.044 101.58v4.787M-395.754 101.58v4.787" fill="none" stroke="#5e5e5e" stroke-width=".266"></path><path d="M-412.333 92.01v9.57l8.29 4.787h8.289l8.29-4.786v-9.572l-8.29-4.786h-8.29z" fill="none" stroke="#000000" stroke-width=".532"></path><circle cx="-136.478" cy="325.284" fill="#f4b934" r="5.801" transform="scale(1.22475 .7071) rotate(45)"></circle><g style="line-height:0%" font-family="sans-serif" font-size="3.191" stroke-width=".266"><path style="line-height:1.25;-inkscape-font-specification:&#x27;Droid Serif&#x27;" d="M-399.242 93.57l.48-.601q.222-.275.177-.448-.04-.17-.467-.416l-.507-.293 1.065-.614.937.541q.825.476.92.934.1.46-.417 1.114l-3.452 4.39-1.622-.937 1.654-2.121-3.729.923-1.622-.936z" fill="#fff" font-family="Droid Serif" font-size="9.971"></path></g></g></svg></g></g><g><g transform="translate(0 0)"><svg x="-80" y="377" height="113.438" width="96" viewBox="0 0 25.400052 30.013873"><g transform="translate(412.599 -86.957)"><path d="M-412.333 102.348v4.786l8.29 4.785h8.289l8.29-4.785v-4.786l-8.29-4.786h-8.29z" fill="#3c3c3c" fill-rule="evenodd"></path><path d="M-395.754 111.92l8.29-4.786v4.785l-8.29 4.786z" fill="#090909" fill-rule="evenodd"></path><path d="M-404.044 111.92h8.29v4.785h-8.29z" fill="#232323" fill-rule="evenodd"></path><path d="M-412.333 107.134v4.785l8.29 4.786v-4.786z" fill="#232323" fill-rule="evenodd"></path><path d="M-412.333 107.134l8.29 4.785h8.289l8.29-4.785M-404.044 111.92v4.785M-395.754 111.92v4.785" fill="none" stroke="#5e5e5e" stroke-width=".26588"></path><path d="M-412.333 102.348v9.571l8.29 4.786h8.289l8.29-4.786v-9.571l-8.29-4.786h-8.29z" fill="none" stroke="#000000" stroke-width=".53176"></path><path d="M-412.333 97.178v4.786l8.29 4.786h8.289l8.29-4.786v-4.786l-8.29-4.786h-8.29z" fill="#3c3c3c" fill-rule="evenodd"></path><path d="M-395.754 106.75l8.29-4.786v4.786l-8.29 4.786z" fill="#090909" fill-rule="evenodd"></path><path d="M-404.044 106.75h8.29v4.786h-8.29z" fill="#232323" fill-rule="evenodd"></path><path d="M-412.333 101.964v4.786l8.29 4.786v-4.786z" fill="#232323" fill-rule="evenodd"></path><path d="M-412.333 101.964l8.29 4.786h8.289l8.29-4.786M-404.044 106.75v4.786M-395.754 106.75v4.786" fill="none" stroke="#5e5e5e" stroke-width=".266"></path><path d="M-412.333 97.178v9.572l8.29 4.786h8.289l8.29-4.786v-9.572l-8.29-4.786h-8.29z" fill="none" stroke="#000000" stroke-width=".532"></path><path d="M-412.333 92.01v4.785l8.29 4.786h8.289l8.29-4.786v-4.786l-8.29-4.786h-8.29z" fill="#3c3c3c" fill-rule="evenodd"></path><path d="M-395.754 101.58l8.29-4.785v4.786l-8.29 4.786z" fill="#090909" fill-rule="evenodd"></path><path d="M-404.044 101.58h8.29v4.787h-8.29z" fill="#232323" fill-rule="evenodd"></path><path d="M-412.333 96.795v4.786l8.29 4.786v-4.786z" fill="#232323" fill-rule="evenodd"></path><path d="M-412.333 96.795l8.29 4.786h8.289l8.29-4.786M-404.044 101.58v4.787M-395.754 101.58v4.787" fill="none" stroke="#5e5e5e" stroke-width=".266"></path><path d="M-412.333 92.01v9.57l8.29 4.787h8.289l8.29-4.786v-9.572l-8.29-4.786h-8.29z" fill="none" stroke="#000000" stroke-width=".532"></path><circle cx="-136.478" cy="325.284" fill="#f4b934" r="5.801" transform="scale(1.22475 .7071) rotate(45)"></circle><g style="line-height:0%" font-family="sans-serif" font-size="3.191" stroke-width=".266"><path style="line-height:1.25;-inkscape-font-specification:&#x27;Droid Serif&#x27;" d="M-399.242 93.57l.48-.601q.222-.275.177-.448-.04-.17-.467-.416l-.507-.293 1.065-.614.937.541q.825.476.92.934.1.46-.417 1.114l-3.452 4.39-1.622-.937 1.654-2.121-3.729.923-1.622-.936z" fill="#fff" font-family="Droid Serif" font-size="9.971"></path></g></g></svg></g></g><g><g transform="translate(0 0)"><svg x="16" y="432" height="113.438" width="96" viewBox="0 0 25.400052 30.013873"><g transform="translate(412.599 -86.957)"><path d="M-412.333 102.348v4.786l8.29 4.785h8.289l8.29-4.785v-4.786l-8.29-4.786h-8.29z" fill="#3c3c3c" fill-rule="evenodd"></path><path d="M-395.754 111.92l8.29-4.786v4.785l-8.29 4.786z" fill="#090909" fill-rule="evenodd"></path><path d="M-404.044 111.92h8.29v4.785h-8.29z" fill="#232323" fill-rule="evenodd"></path><path d="M-412.333 107.134v4.785l8.29 4.786v-4.786z" fill="#232323" fill-rule="evenodd"></path><path d="M-412.333 107.134l8.29 4.785h8.289l8.29-4.785M-404.044 111.92v4.785M-395.754 111.92v4.785" fill="none" stroke="#5e5e5e" stroke-width=".26588"></path><path d="M-412.333 102.348v9.571l8.29 4.786h8.289l8.29-4.786v-9.571l-8.29-4.786h-8.29z" fill="none" stroke="#000000" stroke-width=".53176"></path><path d="M-412.333 97.178v4.786l8.29 4.786h8.289l8.29-4.786v-4.786l-8.29-4.786h-8.29z" fill="#3c3c3c" fill-rule="evenodd"></path><path d="M-395.754 106.75l8.29-4.786v4.786l-8.29 4.786z" fill="#090909" fill-rule="evenodd"></path><path d="M-404.044 106.75h8.29v4.786h-8.29z" fill="#232323" fill-rule="evenodd"></path><path d="M-412.333 101.964v4.786l8.29 4.786v-4.786z" fill="#232323" fill-rule="evenodd"></path><path d="M-412.333 101.964l8.29 4.786h8.289l8.29-4.786M-404.044 106.75v4.786M-395.754 106.75v4.786" fill="none" stroke="#5e5e5e" stroke-width=".266"></path><path d="M-412.333 97.178v9.572l8.29 4.786h8.289l8.29-4.786v-9.572l-8.29-4.786h-8.29z" fill="none" stroke="#000000" stroke-width=".532"></path><path d="M-412.333 92.01v4.785l8.29 4.786h8.289l8.29-4.786v-4.786l-8.29-4.786h-8.29z" fill="#3c3c3c" fill-rule="evenodd"></path><path d="M-395.754 101.58l8.29-4.785v4.786l-8.29 4.786z" fill="#090909" fill-rule="evenodd"></path><path d="M-404.044 101.58h8.29v4.787h-8.29z" fill="#232323" fill-rule="evenodd"></path><path d="M-412.333 96.795v4.786l8.29 4.786v-4.786z" fill="#232323" fill-rule="evenodd"></path><path d="M-412.333 96.795l8.29 4.786h8.289l8.29-4.786M-404.044 101.58v4.787M-395.754 101.58v4.787" fill="none" stroke="#5e5e5e" stroke-width=".266"></path><path d="M-412.333 92.01v9.57l8.29 4.787h8.289l8.29-4.786v-9.572l-8.29-4.786h-8.29z" fill="none" stroke="#000000" stroke-width=".532"></path><circle cx="-136.478" cy="325.284" fill="#f4b934" r="5.801" transform="scale(1.22475 .7071) rotate(45)"></circle><g style="line-height:0%" font-family="sans-serif" font-size="3.191" stroke-width=".266"><path style="line-height:1.25;-inkscape-font-specification:&#x27;Droid Serif&#x27;" d="M-399.242 93.57l.48-.601q.222-.275.177-.448-.04-.17-.467-.416l-.507-.293 1.065-.614.937.541q.825.476.92.934.1.46-.417 1.114l-3.452 4.39-1.622-.937 1.654-2.121-3.729.923-1.622-.936z" fill="#fff" font-family="Droid Serif" font-size="9.971"></path></g></g></svg></g></g><g><g transform="translate(0 0)"><svg x="-304" y="506" height="113.438" width="96" viewBox="0 0 25.400052 30.013873"><g transform="translate(412.599 -86.957)"><path d="M-412.333 102.348v4.786l8.29 4.785h8.289l8.29-4.785v-4.786l-8.29-4.786h-8.29z" fill="#3c3c3c" fill-rule="evenodd"></path><path d="M-395.754 111.92l8.29-4.786v4.785l-8.29 4.786z" fill="#090909" fill-rule="evenodd"></path><path d="M-404.044 111.92h8.29v4.785h-8.29z" fill="#232323" fill-rule="evenodd"></path><path d="M-412.333 107.134v4.785l8.29 4.786v-4.786z" fill="#232323" fill-rule="evenodd"></path><path d="M-412.333 107.134l8.29 4.785h8.289l8.29-4.785M-404.044 111.92v4.785M-395.754 111.92v4.785" fill="none" stroke="#5e5e5e" stroke-width=".26588"></path><path d="M-412.333 102.348v9.571l8.29 4.786h8.289l8.29-4.786v-9.571l-8.29-4.786h-8.29z" fill="none" stroke="#000000" stroke-width=".53176"></path><path d="M-412.333 97.178v4.786l8.29 4.786h8.289l8.29-4.786v-4.786l-8.29-4.786h-8.29z" fill="#3c3c3c" fill-rule="evenodd"></path><path d="M-395.754 106.75l8.29-4.786v4.786l-8.29 4.786z" fill="#090909" fill-rule="evenodd"></path><path d="M-404.044 106.75h8.29v4.786h-8.29z" fill="#232323" fill-rule="evenodd"></path><path d="M-412.333 101.964v4.786l8.29 4.786v-4.786z" fill="#232323" fill-rule="evenodd"></path><path d="M-412.333 101.964l8.29 4.786h8.289l8.29-4.786M-404.044 106.75v4.786M-395.754 106.75v4.786" fill="none" stroke="#5e5e5e" stroke-width=".266"></path><path d="M-412.333 97.178v9.572l8.29 4.786h8.289l8.29-4.786v-9.572l-8.29-4.786h-8.29z" fill="none" stroke="#000000" stroke-width=".532"></path><path d="M-412.333 92.01v4.785l8.29 4.786h8.289l8.29-4.786v-4.786l-8.29-4.786h-8.29z" fill="#3c3c3c" fill-rule="evenodd"></path><path d="M-395.754 101.58l8.29-4.785v4.786l-8.29 4.786z" fill="#090909" fill-rule="evenodd"></path><path d="M-404.044 101.58h8.29v4.787h-8.29z" fill="#232323" fill-rule="evenodd"></path><path d="M-412.333 96.795v4.786l8.29 4.786v-4.786z" fill="#232323" fill-rule="evenodd"></path><path d="M-412.333 96.795l8.29 4.786h8.289l8.29-4.786M-404.044 101.58v4.787M-395.754 101.58v4.787" fill="none" stroke="#5e5e5e" stroke-width=".266"></path><path d="M-412.333 92.01v9.57l8.29 4.787h8.289l8.29-4.786v-9.572l-8.29-4.786h-8.29z" fill="none" stroke="#000000" stroke-width=".532"></path><circle cx="-136.478" cy="325.284" fill="#f4b934" r="5.801" transform="scale(1.22475 .7071) rotate(45)"></circle><g style="line-height:0%" font-family="sans-serif" font-size="3.191" stroke-width=".266"><path style="line-height:1.25;-inkscape-font-specification:&#x27;Droid Serif&#x27;" d="M-399.242 93.57l.48-.601q.222-.275.177-.448-.04-.17-.467-.416l-.507-.293 1.065-.614.937.541q.825.476.92.934.1.46-.417 1.114l-3.452 4.39-1.622-.937 1.654-2.121-3.729.923-1.622-.936z" fill="#fff" font-family="Droid Serif" font-size="9.971"></path></g></g></svg></g></g><g><g transform="translate(0 0)"><svg x="-499" y="601" height="115.695" width="100.625" viewBox="0 0 26.623829 30.611019"><path d="M13.312.306v15l12.99-7.5z" fill="#4286c5" fill-rule="evenodd"></path><path d="M.322 7.806l12.99 7.5v-15z" fill="#26527b" fill-rule="evenodd"></path><path d="M13.312.306v15" fill="none" stroke="#318bce" stroke-width=".265"></path><path d="M13.312 15.306l12.99-7.5-6.495 18.75-6.495 3.75z" fill="#26527b" fill-rule="evenodd"></path><path d="M.322 7.806l12.99 7.5v15l-6.495-3.75z" fill="#326ca2" fill-rule="evenodd"></path><path d="M.322 7.806l12.99 7.5 12.99-7.5-12.99 7.5v15" fill="none" stroke="#5aa2d8" stroke-width=".265"></path><path d="M13.312.306l-12.99 7.5 6.495 18.75 6.495 3.75 6.495-3.75 6.495-18.75z" fill="none" stroke="#000000" stroke-width=".529"></path></svg></g></g></g><g pointer-events=""></g><g pointer-events=""><g><g transform="translate(0 0)"><svg x="-672" y="574" overflow="visible"><g transform=" "><svg width="100" height="100" x="-50" y="-50" style="fill:#ffffff"><svg data-name="Layer 1" xmlns="http://www.w3.org/2000/svg" width="100" height="100" viewBox="0 0 100 100"><path d="M85.23 58v3.19C85.23 67 78.85 73 71 73H29c-7.85 0-14.23-6-14.23-11.81V58z" fill="#9d5125"/><path d="M41.89 26.9a18 18 0 0 1 16.42 10.56 9.14 9.14 0 0 1 14.29 7.18c7.1.59 12.63 7.44 12.63 12.88v1.18c0 5.85-6.38 11.78-14.26 11.78H29c-7.86 0-14.24-5.93-14.24-11.78v-1.17c0-4.51 3.79-10.71 9.12-12.25v-.51A17.94 17.94 0 0 1 41.89 26.9z" fill="#f58535"/><path d="M32.42 47.81l-4.71 16.45h2.76l1.06-4h4.85l1 4h2.76l-4.33-16.45zM32 58.13L34 50l1.9 8.11zM51.99 60.66h-.04l-2.23-12.85h-2.78l-2.18 12.78h-.05l-2.17-12.78h-2.67l3.19 16.45h3.07l2.11-12.39h.05l2.13 12.39h3.06l3.29-16.45h-2.62l-2.16 12.85zM65.28 55.28l-1.79-.65C61.74 54 61 53.25 61 51.84a2.11 2.11 0 0 1 2.22-2.37 2.07 2.07 0 0 1 2.32 2.38v.35h2.65v-.37c0-1.7-.44-4.33-4.68-4.33-3.11 0-5.15 1.66-5.15 4.66 0 2.35 1 3.59 3.45 4.51l1.81.63A2.76 2.76 0 0 1 66 60.2a2.34 2.34 0 0 1-2.51 2.4c-1.83 0-2.71-1-2.71-3v-.42h-2.64v.39c0 2.3.93 5 5 5 3.34 0 5.48-1.45 5.48-4.95.03-2.25-1-3.52-3.34-4.34z" fill="#fff"/></svg></svg></g></svg></g></g><g><g transform="translate(0 0)"><svg x="-144" y="139" overflow="visible"><g transform=" "><svg width="100" height="100" x="-50" y="-50" style="fill:#ffffff"><svg data-name="Layer 1" xmlns="http://www.w3.org/2000/svg" width="100" height="100" viewBox="0 0 100 100"><path fill="#9d5025" d="M33.63 49.98L29.72 73.4l-10.25 2.34-3.4-1.7V49.98h17.56z"/><path fill="#6b3b19" d="M83.95 41.73L50 44.14l-33.95-2.41L50 9l33.95 32.73z"/><path fill="#f58534" d="M56.76 49.98H19.47v25.76l37.29-8.53V49.98z"/><path fill="#9d5025" d="M38.12 49.98l1.22 26.34L27.4 79.7l-4.17-2.08V49.98h14.89z"/><path fill="#f58534" d="M67.93 49.98H27.4V79.7l40.53-11.5V49.98z"/><path fill="#9d5025" d="M46.61 49.98v31.27l-9.31 3.4-5.24-2.62V49.98h14.55z"/><path fill="#f58534" d="M76.76 49.98H37.3v34.67l39.46-14.43V49.98z"/><path fill="#9d5025" d="M43.23 87.62V49.98h25.7l12.33 25.39L49.99 91l-6.76-3.38z"/><path fill="#f58534" d="M49.99 91V49.98h33.95v24.05L49.99 91zM83.95 41.73L50 35.89V9l33.95 16.97v15.76z"/><path fill="#9d5025" d="M16.05 41.73L50 35.89V9L16.05 25.97v15.76z"/></svg></svg></g></svg></g></g><g><g transform="translate(0 0)"><svg x="0" y="56" overflow="visible"><g transform=" "><svg width="100" height="100" x="-50" y="-50" style="fill:#ffffff"><svg data-name="Layer 1" xmlns="http://www.w3.org/2000/svg" width="100" height="100" viewBox="0 0 100 100"><path fill="#fcbf92" d="M84 64.68l-34-4.19-34 4.19L50 91.3l34-26.62z"/><path fill="#9d5025" d="M16 64.68l34 10.17V91.3L16 74.25v-9.57z"/><path fill="#f58534" d="M84 64.68L50 74.85V91.3l34-17.05v-9.57z"/><path fill="#9d5025" d="M20.39 50.22H16v9.67l4.39.8 4.88-5.18-4.88-5.29z"/><path fill="#f58534" d="M25.27 60.29l-4.88.4V50.22h4.88v10.07z"/><path fill="#9d5025" d="M28.56 38.16l-5.78 1.09v21.94l5.78 1.2 5.29-12.17-5.29-12.06z"/><path fill="#f58534" d="M33.85 61.79l-5.29.6V38.16l5.29.6v23.03z"/><path fill="#9d5025" d="M39.83 43.04l-7.98.8v19.24l7.98 1.6 8.47-10.87-8.47-10.77z"/><path fill="#f58534" d="M45.21 63.78l-5.38.9V43.04l5.38.4v20.34z"/><path fill="#9d5025" d="M50 25.59l-5.38 1.7v38.29L50 66.67l5.38-20.54L50 25.59z"/><path fill="#9d5025" d="M54.98 63.78l5.19.9 7.98-14.46-7.98-14.36-5.19.8v27.12z"/><path fill="#9d5025" d="M68.15 50.22l-7.98-14.36-5.19.8"/><path fill="#9d5025" d="M66.05 61.79l5.39.6 5.78-18.25-5.78-18.15-5.39 1.3v34.5z"/><path fill="#9d5025" d="M74.73 60.29l4.88.4L84 42.64 79.61 24l-4.88 1.2v35.09z"/><path fill="#f58534" d="M50 25.59l5.38 1.7v38.29L50 66.67V25.59zM68.15 37.46l-7.98-1.6v28.82l7.98-1.6V37.46zM77.22 28.29l-5.78-2.3v36.4l5.78-1.2v-32.9zM84 26.19L79.61 24v36.69l4.39-.8v-33.7z"/></svg></svg></g></svg></g></g></g><g pointer-events=""><g><g transform="translate(0 0)"><svg x="-400" y="712" overflow="visible" style="user-select:none"><text stroke="#ffffff" stroke-width="4" font-family="Open Sans" y="36.5" font-size="25pt" fill="#f5b720" font-weight="bold" transform="matrix(0.707 0.409 -0.707 0.409 0 0)"><tspan x="8" dy="0">Cost and usage report</tspan><tspan x="8" dy="1.1em">in csv</tspan></text><text font-family="Open Sans" y="36.5" font-size="25pt" fill="#f5b720" font-weight="bold" transform="matrix(0.707 0.409 -0.707 0.409 0 0)"><tspan x="8" dy="0">Cost and usage report</tspan><tspan x="8" dy="1.1em">in csv</tspan></text></svg></g></g><g><g transform="translate(0 0)"><svg x="-192" y="611" overflow="visible" style="user-select:none"><text stroke="#ffffff" stroke-width="4" font-family="Open Sans" y="36.5" font-size="25pt" fill="#f5b720" font-weight="bold" transform="matrix(0.707 0.409 -0.707 0.409 0 0)"><tspan x="8" dy="0">Manifest processor</tspan></text><text font-family="Open Sans" y="36.5" font-size="25pt" fill="#f5b720" font-weight="bold" transform="matrix(0.707 0.409 -0.707 0.409 0 0)"><tspan x="8" dy="0">Manifest processor</tspan></text></svg></g></g><g><g transform="translate(0 0)"><svg x="112" y="527" overflow="visible" style="user-select:none"><text stroke="#ffffff" stroke-width="4" font-family="Open Sans" y="36.5" font-size="25pt" fill="#f5b720" font-weight="bold" transform="matrix(0.707 0.409 -0.707 0.409 0 0)"><tspan x="8" dy="0">csv processors</tspan></text><text font-family="Open Sans" y="36.5" font-size="25pt" fill="#f5b720" font-weight="bold" transform="matrix(0.707 0.409 -0.707 0.409 0 0)"><tspan x="8" dy="0">csv processors</tspan></text></svg></g></g><g><g transform="translate(0 0)"><svg x="240" y="324" overflow="visible" style="user-select:none"><text stroke="#ffffff" stroke-width="4" font-family="Open Sans" y="36.5" font-size="25pt" fill="#f5b720" font-weight="bold" transform="matrix(0.707 0.409 -0.707 0.409 0 0)"><tspan x="8" dy="0">Cost and usage report</tspan><tspan x="8" dy="1.1em">in parquet</tspan></text><text font-family="Open Sans" y="36.5" font-size="25pt" fill="#f5b720" font-weight="bold" transform="matrix(0.707 0.409 -0.707 0.409 0 0)"><tspan x="8" dy="0">Cost and usage report</tspan><tspan x="8" dy="1.1em">in parquet</tspan></text></svg></g></g><g><g transform="translate(0 0)"><svg x="-112" y="157" overflow="visible" style="user-select:none"><text stroke="#ffffff" stroke-width="4" font-family="Open Sans" y="36.5" font-size="25pt" fill="#f5b720" font-weight="bold" transform="matrix(0.707 0.409 -0.707 0.409 0 0)"><tspan x="8" dy="0">AWS Glue Crawler</tspan><tspan x="8" dy="1.1em">and Database</tspan></text><text font-family="Open Sans" y="36.5" font-size="25pt" fill="#f5b720" font-weight="bold" transform="matrix(0.707 0.409 -0.707 0.409 0 0)"><tspan x="8" dy="0">AWS Glue Crawler</tspan><tspan x="8" dy="1.1em">and Database</tspan></text></svg></g></g><g><g transform="translate(0 0)"><svg x="32" y="74" overflow="visible" style="user-select:none"><text stroke="#ffffff" stroke-width="4" font-family="Open Sans" y="36.5" font-size="25pt" fill="#f5b720" font-weight="bold" transform="matrix(0.707 0.409 -0.707 0.409 0 0)"><tspan x="8" dy="0">AWS Athena</tspan></text><text font-family="Open Sans" y="36.5" font-size="25pt" fill="#f5b720" font-weight="bold" transform="matrix(0.707 0.409 -0.707 0.409 0 0)"><tspan x="8" dy="0">AWS Athena</tspan></text></svg></g></g></g></g></g></svg>